<svg width="18" height="18" viewBox="0 0 18 18" fill="none" xmlns="http://www.w3.org/2000/svg">
<path d="M1.5 7.1254C1.50002 6.2908 1.7532 5.47583 2.2261 4.78814C2.699 4.10045 3.36939 3.57239 4.14871 3.2737C4.92803 2.975 5.77962 2.91973 6.59101 3.11518C7.4024 3.31063 8.13542 3.74761 8.69325 4.3684C8.73254 4.41041 8.78004 4.4439 8.83281 4.4668C8.88557 4.48969 8.94248 4.50151 9 4.50151C9.05752 4.50151 9.11443 4.48969 9.16719 4.4668C9.21996 4.4439 9.26746 4.41041 9.30675 4.3684C9.86283 3.74357 10.596 3.30292 11.4087 3.1051C12.2214 2.90727 13.0751 2.96166 13.8562 3.26101C14.6372 3.56036 15.3085 4.09049 15.7808 4.78082C16.2531 5.47116 16.504 6.28897 16.5 7.1254C16.5 8.8429 15.375 10.1254 14.25 11.2504L10.131 15.2351C9.99125 15.3957 9.81895 15.5246 9.62553 15.6134C9.43212 15.7022 9.22203 15.7488 9.00922 15.7501C8.7964 15.7515 8.58574 15.7075 8.39122 15.6212C8.19669 15.5349 8.02277 15.4081 7.881 15.2494L3.75 11.2504C2.625 10.1254 1.5 8.8504 1.5 7.1254Z" stroke="#717182" stroke-width="2" stroke-linecap="round" stroke-linejoin="round"/>
</svg>
