<svg width="24" height="24" viewBox="0 0 24 24" fill="none" xmlns="http://www.w3.org/2000/svg">
<path d="M20.0004 1.99849V5.99849M22.0004 3.99849H18.0004M11.0174 2.81249C11.0603 2.58309 11.182 2.3759 11.3615 2.22681C11.5411 2.07771 11.7671 1.99609 12.0004 1.99609C12.2338 1.99609 12.4598 2.07771 12.6393 2.22681C12.8189 2.3759 12.9406 2.58309 12.9834 2.81249L14.0344 8.37049C14.1091 8.76564 14.3011 9.12911 14.5855 9.41346C14.8698 9.69781 15.2333 9.88984 15.6284 9.96449L21.1864 11.0155C21.4158 11.0583 21.623 11.1801 21.7721 11.3596C21.9212 11.5391 22.0028 11.7651 22.0028 11.9985C22.0028 12.2319 21.9212 12.4579 21.7721 12.6374C21.623 12.8169 21.4158 12.9386 21.1864 12.9815L15.6284 14.0325C15.2333 14.1071 14.8698 14.2992 14.5855 14.5835C14.3011 14.8679 14.1091 15.2313 14.0344 15.6265L12.9834 21.1845C12.9406 21.4139 12.8189 21.6211 12.6393 21.7702C12.4598 21.9193 12.2338 22.0009 12.0004 22.0009C11.7671 22.0009 11.5411 21.9193 11.3615 21.7702C11.182 21.6211 11.0603 21.4139 11.0174 21.1845L9.96644 15.6265C9.8918 15.2313 9.69977 14.8679 9.41541 14.5835C9.13106 14.2992 8.76759 14.1071 8.37244 14.0325L2.81444 12.9815C2.58504 12.9386 2.37786 12.8169 2.22876 12.6374C2.07966 12.4579 1.99805 12.2319 1.99805 11.9985C1.99805 11.7651 2.07966 11.5391 2.22876 11.3596C2.37786 11.1801 2.58504 11.0583 2.81444 11.0155L8.37244 9.96449C8.76759 9.88984 9.13106 9.69781 9.41541 9.41346C9.69977 9.12911 9.8918 8.76564 9.96644 8.37049L11.0174 2.81249ZM6.00044 19.9985C6.00044 21.1031 5.10501 21.9985 4.00044 21.9985C2.89587 21.9985 2.00044 21.1031 2.00044 19.9985C2.00044 18.8939 2.89587 17.9985 4.00044 17.9985C5.10501 17.9985 6.00044 18.8939 6.00044 19.9985Z" stroke="#6758FF" stroke-width="2" stroke-linecap="round" stroke-linejoin="round"/>
</svg>
