<svg width="18" height="18" viewBox="0 0 18 18" fill="none" xmlns="http://www.w3.org/2000/svg">
<path d="M1.54688 9.26054C1.48437 9.09215 1.48437 8.90692 1.54688 8.73854C2.15565 7.26243 3.18902 6.00032 4.51596 5.11221C5.8429 4.22411 7.40366 3.75 9.00038 3.75C10.5971 3.75 12.1579 4.22411 13.4848 5.11221C14.8117 6.00032 15.8451 7.26243 16.4539 8.73854C16.5164 8.90692 16.5164 9.09215 16.4539 9.26054C15.8451 10.7366 14.8117 11.9988 13.4848 12.8869C12.1579 13.775 10.5971 14.2491 9.00038 14.2491C7.40366 14.2491 5.8429 13.775 4.51596 12.8869C3.18902 11.9988 2.15565 10.7366 1.54688 9.26054Z" stroke="#717182" stroke-width="2" stroke-linecap="round" stroke-linejoin="round"/>
<path d="M9.00038 11.2495C10.243 11.2495 11.2504 10.2422 11.2504 8.99954C11.2504 7.7569 10.243 6.74954 9.00038 6.74954C7.75774 6.74954 6.75038 7.7569 6.75038 8.99954C6.75038 10.2422 7.75774 11.2495 9.00038 11.2495Z" stroke="#717182" stroke-width="2" stroke-linecap="round" stroke-linejoin="round"/>
</svg>
